<svg width="24" height="24" viewBox="0 0 24 24" fill="none" xmlns="http://www.w3.org/2000/svg">
<path d="M11.9997 16C12.69 16 13.2497 16.5596 13.2497 17.25C13.2497 17.9403 12.69 18.5 11.9997 18.5C11.3094 18.4998 10.7497 17.9402 10.7497 17.25C10.7497 16.5597 11.3094 16.0001 11.9997 16Z" fill="#1A1A1A"/>
<path d="M11.9997 7.24995C12.552 7.24995 12.9997 7.69767 12.9997 8.24995V13.75C12.9997 14.3022 12.552 14.75 11.9997 14.75C11.4475 14.7498 10.9997 14.3022 10.9997 13.75V8.24995C10.9997 7.69775 11.4475 7.25009 11.9997 7.24995Z" fill="#1A1A1A"/>
<path fill-rule="evenodd" clip-rule="evenodd" d="M9.8073 2.42183C10.756 0.69008 13.2433 0.690161 14.1921 2.42183L23.1608 18.7988C24.0731 20.4647 22.8677 22.4997 20.9684 22.5H3.03094C1.13184 22.4995 -0.0735948 20.4646 0.838553 18.7988L9.8073 2.42183ZM12.4382 3.38276C12.2484 3.03645 11.7509 3.03637 11.5612 3.38276L2.59246 19.7597C2.41026 20.0927 2.65146 20.4995 3.03094 20.5H20.9684C21.3481 20.4997 21.5893 20.0928 21.4069 19.7597L12.4382 3.38276Z" fill="#1A1A1A"/>
</svg>
