<svg width="24" height="24" viewBox="0 0 24 24" fill="none" xmlns="http://www.w3.org/2000/svg">
<path d="M13.8902 1.07923C14.3228 1.26257 14.5695 1.72241 14.4829 2.18426L13.4434 7.72816L11.0127 10.1589C10.9946 10.0463 10.9956 9.9303 11.0171 9.81568L11.6751 6.3063L6.93379 13H8.17159L6.17159 15H5C4.62613 15 4.28348 14.7914 4.11174 14.4593C3.94001 14.1272 3.96787 13.727 4.18398 13.422L12.684 1.42195C12.9556 1.0385 13.4575 0.895885 13.8902 1.07923Z" fill="#1A1A1A"/>
<path d="M15.8284 11L17.8284 8.99997H19C19.3739 8.99997 19.7165 9.20853 19.8883 9.54063C20.06 9.87273 20.0321 10.2729 19.816 10.578L11.316 22.578C11.0444 22.9614 10.5425 23.104 10.1098 22.9207C9.67718 22.7374 9.43053 22.2775 9.51713 21.8157L10.5566 16.2718L12.9873 13.8411C13.0054 13.9536 13.0044 14.0696 12.9829 14.1843L12.3249 17.6936L17.0662 11H15.8284Z" fill="#1A1A1A"/>
<path d="M21.5303 3.53031C21.8232 3.23742 21.8232 2.76255 21.5303 2.46965C21.2374 2.17676 20.7626 2.17676 20.4697 2.46965L2.46967 20.4697C2.17678 20.7625 2.17678 21.2374 2.46967 21.5303C2.76256 21.8232 3.23744 21.8232 3.53033 21.5303L21.5303 3.53031Z" fill="#1A1A1A"/>
</svg>
