<svg width="24" height="24" viewBox="0 0 24 24" fill="none" xmlns="http://www.w3.org/2000/svg">
<path fill-rule="evenodd" clip-rule="evenodd" d="M13.0244 0.594611C12.4568 0.0262427 11.5432 0.0262432 10.9756 0.594611C10.6701 0.900492 10.1989 1.40961 9.79762 2.01256C9.414 2.58898 9 3.38902 9 4.25004C9 4.94851 9.22143 5.53032 9.54521 5.99063C9.92057 6.52425 10.4412 6.87402 11 7.05963V8.00005H4.5C2.84315 8.00005 1.5 9.34319 1.5 11V21H1C0.447715 21 0 21.4478 0 22C0 22.5523 0.447715 23 1 23H23C23.5523 23 24 22.5523 24 22C24 21.4478 23.5523 21 23 21H22.5V11C22.5 9.34319 21.1569 8.00005 19.5 8.00005H13V7.05963C13.5588 6.87402 14.0794 6.52425 14.4548 5.99063C14.7786 5.53032 15 4.94851 15 4.25004C15 3.38902 14.586 2.58898 14.2024 2.01256C13.8011 1.40961 13.3299 0.900492 13.0244 0.594611ZM11.4626 3.12065C11.6302 2.86886 11.82 2.63135 12 2.42563C12.18 2.63135 12.3698 2.86886 12.5374 3.12065C12.8544 3.59693 13 3.98895 13 4.25004C13 4.50316 12.9257 4.68813 12.8189 4.83996C12.6588 5.06764 12.3606 5.22082 12 5.22082C11.6394 5.22082 11.3412 5.06764 11.1811 4.83996C11.0743 4.68813 11 4.50316 11 4.25004C11 3.98895 11.1456 3.59693 11.4626 3.12065ZM4.5 10C3.94772 10 3.5 10.4478 3.5 11V15.5858L4.23224 14.8536C5.20855 13.8773 6.79146 13.8773 7.76777 14.8536L8.64645 15.7323C8.84172 15.9275 9.1583 15.9275 9.35356 15.7323L10.2322 14.8536C11.2086 13.8773 12.7915 13.8773 13.7678 14.8536L14.6465 15.7323C14.8417 15.9275 15.1583 15.9275 15.3536 15.7323L16.2322 14.8536C17.2085 13.8773 18.7915 13.8773 19.7678 14.8536L20.5 15.5858V11C20.5 10.4478 20.0523 10 19.5 10H4.5ZM3.5 21V17.8285C3.96456 17.7341 4.40747 17.5068 4.76777 17.1465L5.64645 16.2678C5.84172 16.0726 6.1583 16.0726 6.35356 16.2678L7.23224 17.1465C8.20855 18.1228 9.79146 18.1228 10.7678 17.1465L11.6465 16.2678C11.8417 16.0726 12.1583 16.0726 12.3536 16.2678L13.2322 17.1465C14.2086 18.1228 15.7915 18.1228 16.7678 17.1465L17.6465 16.2678C17.8417 16.0726 18.1583 16.0726 18.3536 16.2678L19.2322 17.1465C19.5925 17.5068 20.0354 17.7341 20.5 17.8285V21H3.5Z" fill="#1A1A1A"/>
</svg>
