<svg width="24" height="24" viewBox="0 0 24 24" fill="none" xmlns="http://www.w3.org/2000/svg">
<path fill-rule="evenodd" clip-rule="evenodd" d="M15.9802 2.33906C16.8589 1.46039 18.2835 1.46038 19.1622 2.33906C20.0408 3.21774 20.0408 4.64236 19.1622 5.52104L7.84843 16.8347C7.24702 17.4361 6.02867 18.271 4.95599 18.8968C4.41212 19.214 3.87161 19.4976 3.43024 19.6815C3.21405 19.7716 2.98942 19.8515 2.78467 19.892C2.68375 19.912 2.55212 19.9298 2.41108 19.9186C2.27931 19.9081 2.03878 19.8639 1.83804 19.6632C1.63727 19.4624 1.59305 19.2218 1.58257 19.0901C1.57136 18.9491 1.58919 18.8174 1.60916 18.7165C1.64969 18.5118 1.72962 18.2872 1.8197 18.071C2.0036 17.6296 2.28716 17.0891 2.60442 16.5452C3.23014 15.4725 4.06503 14.2542 4.66645 13.6527L15.9802 2.33906ZM18.1015 3.39972C17.8086 3.10683 17.3337 3.10683 17.0408 3.39972L6.25745 14.1831C5.96455 14.476 5.96455 14.9508 6.25745 15.2437C6.55034 15.5366 7.02521 15.5366 7.3181 15.2437L18.1015 4.46038C18.3944 4.16749 18.3944 3.69262 18.1015 3.39972Z" fill="#1A1A1A"/>
<path d="M21.6583 17.7552C17.9052 21.0369 12.6717 21.4348 7.11191 19.9139C7.86972 19.4159 8.62774 18.8583 9.15807 18.3523C13.6966 19.2906 17.5929 18.6533 20.3418 16.2496C20.7576 15.8861 21.3893 15.9284 21.7529 16.3442C22.1164 16.76 22.0741 17.3917 21.6583 17.7552Z" fill="#1A1A1A"/>
</svg>
