<svg width="24" height="24" viewBox="0 0 24 24" fill="none" xmlns="http://www.w3.org/2000/svg">
<path fill-rule="evenodd" clip-rule="evenodd" d="M12 23C18.0751 23 23 18.0751 23 12C23 5.92487 18.0751 1 12 1C5.92487 1 1 5.92487 1 12C1 18.0751 5.92487 23 12 23ZM17.6568 6.34316C18.0474 6.73368 18.0474 7.36685 17.6568 7.75737L13.4142 12L17.6568 16.2427C18.0474 16.6332 18.0474 17.2663 17.6568 17.6569C17.2663 18.0474 16.6331 18.0474 16.2426 17.6569L12 13.4142L7.75734 17.6569C7.36681 18.0474 6.73365 18.0474 6.34313 17.6569C5.9526 17.2663 5.9526 16.6332 6.34313 16.2427L10.5858 12L6.34313 7.75737C5.9526 7.36684 5.9526 6.73368 6.34313 6.34316C6.73365 5.95263 7.36681 5.95263 7.75734 6.34316L12 10.5858L16.2426 6.34316C16.6331 5.95263 17.2663 5.95263 17.6568 6.34316Z" fill="#1A1A1A"/>
</svg>
